<svg aria-hidden="true" style="position: absolute; width: 0; height: 0; overflow: hidden;" version="1.1" xmlns="http://www.w3.org/2000/svg" xmlns:xlink="http://www.w3.org/1999/xlink">
<defs>
<symbol id="icon-qrcode" viewBox="0 0 25 32">
<title>qrcode</title>
<path d="M6.848 20.576v2.272h-2.272v-2.272h2.272zM6.848 6.848v2.304h-2.272v-2.304h2.272zM20.576 6.848v2.304h-2.304v-2.304h2.304zM2.272 25.12h6.88v-6.848h-6.88v6.848zM2.272 11.424h6.88v-6.848h-6.88v6.848zM16 11.424h6.848v-6.848h-6.848v6.848zM11.424 16v11.424h-11.424v-11.424h11.424zM20.576 25.152v2.272h-2.304v-2.272h2.304zM25.152 25.152v2.272h-2.304v-2.272h2.304zM25.152 16v6.848h-6.88v-2.272h-2.272v6.848h-2.272v-11.424h6.848v2.272h2.272v-2.272h2.304zM11.424 2.272v11.456h-11.424v-11.456h11.424zM25.152 2.272v11.456h-11.424v-11.456h11.424z"></path>
</symbol>
<symbol id="icon-volume-up" viewBox="0 0 30 32">
<title>volume-up</title>
<path d="M13.728 6.272v19.456q0 0.448-0.352 0.8t-0.8 0.32-0.8-0.32l-5.952-5.952h-4.672q-0.48 0-0.8-0.352t-0.352-0.8v-6.848q0-0.48 0.352-0.8t0.8-0.352h4.672l5.952-5.952q0.32-0.32 0.8-0.32t0.8 0.32 0.352 0.8zM20.576 16q0 1.344-0.768 2.528t-2.016 1.664q-0.16 0.096-0.448 0.096-0.448 0-0.8-0.32t-0.32-0.832q0-0.384 0.192-0.64t0.544-0.448 0.608-0.384 0.512-0.672 0.192-0.992-0.192-1.024-0.512-0.64-0.608-0.416-0.544-0.416-0.192-0.64q0-0.48 0.32-0.832t0.8-0.32q0.288 0 0.448 0.096 1.248 0.48 2.016 1.664t0.768 2.528zM25.152 16q0 2.72-1.536 5.056t-4 3.36q-0.224 0.096-0.448 0.096-0.48 0-0.832-0.352t-0.32-0.8q0-0.704 0.672-1.056 1.024-0.512 1.376-0.8 1.312-0.96 2.048-2.4t0.736-3.104-0.736-3.104-2.048-2.4q-0.352-0.288-1.376-0.8-0.672-0.352-0.672-1.056 0-0.448 0.32-0.8t0.8-0.352q0.256 0 0.48 0.096 2.496 1.056 4 3.36t1.536 5.056zM29.728 16q0 4.096-2.272 7.552t-6.048 5.056q-0.224 0.096-0.448 0.096-0.48 0-0.8-0.352t-0.352-0.8q0-0.64 0.704-1.056 0.128-0.064 0.384-0.192t0.416-0.192q0.8-0.448 1.472-0.896 2.176-1.632 3.424-4.064t1.216-5.152-1.216-5.152-3.424-4.064q-0.672-0.48-1.472-0.896-0.128-0.096-0.416-0.192t-0.384-0.192q-0.704-0.416-0.704-1.056 0-0.48 0.352-0.8t0.8-0.352q0.224 0 0.448 0.096 3.776 1.632 6.048 5.056t2.272 7.552z"></path>
</symbol>
<symbol id="icon-volume-off" viewBox="0 0 14 32">
<title>volume-off</title>
<path d="M13.728 6.272v19.456q0 0.448-0.352 0.8t-0.8 0.32-0.8-0.32l-5.952-5.952h-4.672q-0.48 0-0.8-0.352t-0.352-0.8v-6.848q0-0.48 0.352-0.8t0.8-0.352h4.672l5.952-5.952q0.32-0.32 0.8-0.32t0.8 0.32 0.352 0.8z"></path>
</symbol>
<symbol id="icon-home" viewBox="0 0 30 32">
<title>home</title>
<path d="M25.152 17.728v8.544q0 0.48-0.352 0.8t-0.8 0.352h-6.848v-6.848h-4.576v6.848h-6.848q-0.48 0-0.8-0.352t-0.352-0.8v-8.544q0-0.032 0-0.064t0-0.064l10.272-8.448 10.272 8.448q0.032 0.032 0.032 0.128zM29.12 16.48l-1.088 1.312q-0.16 0.16-0.384 0.192h-0.064q-0.224 0-0.384-0.096l-12.352-10.304-12.352 10.304q-0.224 0.128-0.416 0.096-0.224-0.032-0.384-0.192l-1.12-1.312q-0.128-0.192-0.096-0.416t0.192-0.384l12.832-10.688q0.576-0.48 1.344-0.48t1.376 0.48l4.352 3.616v-3.456q0-0.256 0.16-0.416t0.416-0.16h3.424q0.256 0 0.416 0.16t0.16 0.416v7.264l3.904 3.264q0.192 0.128 0.192 0.384t-0.128 0.416z"></path>
</symbol>
<symbol id="icon-resize-full-alt" viewBox="0 0 27 32">
<title>resize-full-alt</title>
<path d="M22.912 9.664l-6.336 6.336 6.336 6.336 2.56-2.56q0.544-0.576 1.248-0.256 0.704 0.288 0.704 1.056v8q0 0.448-0.32 0.8t-0.832 0.352h-8q-0.736 0-1.024-0.736-0.32-0.672 0.224-1.216l2.592-2.592-6.336-6.336-6.336 6.336 2.56 2.592q0.544 0.544 0.256 1.216-0.32 0.736-1.056 0.736h-8q-0.48 0-0.8-0.352t-0.352-0.8v-8q0-0.768 0.704-1.056 0.704-0.32 1.248 0.256l2.56 2.56 6.336-6.336-6.336-6.336-2.56 2.56q-0.352 0.352-0.8 0.352-0.224 0-0.448-0.096-0.704-0.288-0.704-1.056v-8q0-0.448 0.352-0.8t0.8-0.352h8q0.736 0 1.056 0.736 0.288 0.672-0.256 1.216l-2.56 2.592 6.336 6.336 6.336-6.336-2.592-2.592q-0.544-0.544-0.224-1.216 0.288-0.736 1.024-0.736h8q0.48 0 0.832 0.352t0.32 0.8v8q0 0.768-0.704 1.056-0.224 0.096-0.448 0.096-0.448 0-0.8-0.352z"></path>
</symbol>
<symbol id="icon-angle-left" viewBox="0 0 11 32">
<title>angle-left</title>
<path d="M11.2 9.728q0 0.224-0.192 0.384l-7.008 7.040 7.008 7.008q0.192 0.192 0.192 0.416t-0.192 0.416l-0.896 0.896q-0.16 0.16-0.384 0.16t-0.416-0.16l-8.32-8.352q-0.192-0.16-0.192-0.384t0.192-0.416l8.32-8.32q0.16-0.192 0.416-0.192t0.384 0.192l0.896 0.896q0.192 0.16 0.192 0.416z"></path>
</symbol>
<symbol id="icon-angle-right" viewBox="0 0 11 32">
<title>angle-right</title>
<path d="M10.624 17.152q0 0.224-0.16 0.384l-8.352 8.352q-0.16 0.16-0.384 0.16t-0.416-0.16l-0.896-0.896q-0.192-0.192-0.192-0.416t0.192-0.416l7.008-7.008-7.008-7.040q-0.192-0.16-0.192-0.384t0.192-0.416l0.896-0.896q0.16-0.192 0.416-0.192t0.384 0.192l8.352 8.32q0.16 0.16 0.16 0.416z"></path>
</symbol>
</defs>
</svg>
